<svg width="35" height="35" viewBox="0 0 35 35" fill="none" xmlns="http://www.w3.org/2000/svg">
<g clip-path="url(#clip0_44_77)">
<path d="M34.5789 17.2895C34.5789 7.74076 26.8382 0 17.2895 0C7.74076 0 0 7.74076 0 17.2895C0 25.919 6.32248 33.0719 14.588 34.3689V22.2872H10.1981V17.2895H14.588V13.4804C14.588 9.14721 17.1693 6.7537 21.1185 6.7537C23.0095 6.7537 24.9887 7.09139 24.9887 7.09139V11.3462H22.8086C20.6609 11.3462 19.991 12.6791 19.991 14.0477V17.2895H24.7861L24.0195 22.2872H19.991V34.3689C28.2565 33.0719 34.5789 25.919 34.5789 17.2895Z" fill="white"/>
</g>
<defs>
<clipPath id="clip0_44_77">
<rect width="34.5789" height="34.5789" fill="white"/>
</clipPath>
</defs>
</svg>
