<svg width="35" height="35" viewBox="0 0 35 35" fill="none" xmlns="http://www.w3.org/2000/svg">
<g clip-path="url(#clip0_44_81)">
<path d="M17.7105 3.11346C22.33 3.11346 22.8771 3.13372 24.6938 3.21476C26.3822 3.28905 27.294 3.57271 27.9018 3.80909C28.7055 4.11976 29.2863 4.49796 29.8874 5.09904C30.4953 5.70688 30.8667 6.28094 31.1774 7.08463C31.4138 7.69247 31.6974 8.61097 31.7717 10.2926C31.8527 12.1161 31.873 12.6632 31.873 17.276C31.873 21.8955 31.8527 22.4425 31.7717 24.2593C31.6974 25.9477 31.4138 26.8595 31.1774 27.4673C30.8667 28.271 30.4885 28.8518 29.8874 29.4529C29.2796 30.0607 28.7055 30.4322 27.9018 30.7428C27.294 30.9792 26.3755 31.2629 24.6938 31.3372C22.8703 31.4182 22.3233 31.4385 17.7105 31.4385C13.091 31.4385 12.5439 31.4182 10.7272 31.3372C9.03874 31.2629 8.12699 30.9792 7.51916 30.7428C6.71547 30.4322 6.13465 30.054 5.53357 29.4529C4.92574 28.8451 4.55429 28.271 4.24362 27.4673C4.00724 26.8595 3.72358 25.941 3.64929 24.2593C3.56825 22.4358 3.54798 21.8887 3.54798 17.276C3.54798 12.6564 3.56825 12.1094 3.64929 10.2926C3.72358 8.60421 4.00724 7.69247 4.24362 7.08463C4.55429 6.28094 4.93249 5.70012 5.53357 5.09904C6.14141 4.49121 6.71547 4.11976 7.51916 3.80909C8.12699 3.57271 9.0455 3.28905 10.7272 3.21476C12.5439 3.13372 13.091 3.11346 17.7105 3.11346ZM17.7105 0C13.0167 0 12.4291 0.0202611 10.5853 0.101306C8.74833 0.18235 7.48539 0.479513 6.39129 0.904996C5.24992 1.35074 4.28414 1.93831 3.32511 2.90409C2.35933 3.86312 1.77176 4.8289 1.32602 5.96352C0.900533 7.06437 0.60337 8.32056 0.522326 10.1576C0.441282 12.0081 0.421021 12.5957 0.421021 17.2895C0.421021 21.9833 0.441282 22.5709 0.522326 24.4146C0.60337 26.2516 0.900533 27.5146 1.32602 28.6087C1.77176 29.7501 2.35933 30.7158 3.32511 31.6749C4.28414 32.6339 5.24992 33.2282 6.38454 33.6672C7.48539 34.0927 8.74158 34.3898 10.5786 34.4709C12.4223 34.5519 13.0099 34.5722 17.7037 34.5722C22.3976 34.5722 22.9851 34.5519 24.8289 34.4709C26.6659 34.3898 27.9288 34.0927 29.0229 33.6672C30.1576 33.2282 31.1233 32.6339 32.0824 31.6749C33.0414 30.7158 33.6357 29.7501 34.0747 28.6154C34.5002 27.5146 34.7974 26.2584 34.8784 24.4214C34.9594 22.5776 34.9797 21.99 34.9797 17.2962C34.9797 12.6024 34.9594 12.0148 34.8784 10.1711C34.7974 8.33407 34.5002 7.07112 34.0747 5.97703C33.6492 4.8289 33.0617 3.86312 32.0959 2.90409C31.1369 1.94507 30.1711 1.35074 29.0365 0.91175C27.9356 0.486266 26.6794 0.189104 24.8424 0.108059C22.9919 0.0202611 22.4043 0 17.7105 0Z" fill="white"/>
<path d="M17.7105 8.40836C12.8073 8.40836 8.82935 12.3863 8.82935 17.2895C8.82935 22.1927 12.8073 26.1706 17.7105 26.1706C22.6136 26.1706 26.5916 22.1927 26.5916 17.2895C26.5916 12.3863 22.6136 8.40836 17.7105 8.40836ZM17.7105 23.0504C14.5295 23.0504 11.9496 20.4705 11.9496 17.2895C11.9496 14.1085 14.5295 11.5286 17.7105 11.5286C20.8915 11.5286 23.4714 14.1085 23.4714 17.2895C23.4714 20.4705 20.8915 23.0504 17.7105 23.0504Z" fill="white"/>
<path d="M29.0162 8.05709C29.0162 9.20522 28.0841 10.1305 26.9428 10.1305C25.7946 10.1305 24.8694 9.19847 24.8694 8.05709C24.8694 6.90896 25.8014 5.9837 26.9428 5.9837C28.0841 5.9837 29.0162 6.91572 29.0162 8.05709Z" fill="white"/>
</g>
<defs>
<clipPath id="clip0_44_81">
<rect width="34.5789" height="34.5789" fill="white" transform="translate(0.421021)"/>
</clipPath>
</defs>
</svg>
