<svg width="35" height="35" viewBox="0 0 35 35" fill="none" xmlns="http://www.w3.org/2000/svg">
<g clip-path="url(#clip0_44_79)">
<path d="M11.0888 31.3372C24.1342 31.3372 31.2715 20.5266 31.2715 11.1545C31.2715 10.8505 31.2648 10.5399 31.2513 10.236C32.6397 9.23187 33.8379 7.98817 34.7895 6.56329C33.4964 7.1386 32.1235 7.51433 30.7177 7.67765C32.1979 6.79037 33.3063 5.3965 33.8372 3.75442C32.4447 4.57969 30.9218 5.16185 29.3339 5.47594C28.264 4.33909 26.8493 3.58636 25.3087 3.33412C23.768 3.08189 22.1872 3.34421 20.8106 4.08052C19.434 4.81683 18.3383 5.98612 17.6929 7.40761C17.0475 8.8291 16.8883 10.4236 17.24 11.9446C14.4203 11.8031 11.6619 11.0707 9.14344 9.79469C6.62501 8.51872 4.40283 6.72774 2.62097 4.53785C1.71533 6.09928 1.43821 7.94695 1.84591 9.70535C2.25362 11.4638 3.31556 13.001 4.81592 14.0045C3.68954 13.9688 2.58784 13.6655 1.60183 13.1198V13.2076C1.60082 14.8462 2.1673 16.4346 3.20498 17.7027C4.24265 18.9709 5.68748 19.8405 7.29385 20.1639C6.25044 20.4494 5.15534 20.491 4.09327 20.2855C4.54656 21.6947 5.4285 22.9272 6.61599 23.811C7.80349 24.6949 9.23729 25.1859 10.7173 25.2157C8.20468 27.1894 5.10086 28.2599 1.90575 28.2548C1.33912 28.254 0.773054 28.2192 0.210571 28.1508C3.45646 30.2332 7.2323 31.3392 11.0888 31.3372Z" fill="white"/>
</g>
<defs>
<clipPath id="clip0_44_79">
<rect width="34.5789" height="34.5789" fill="white" transform="translate(0.210571)"/>
</clipPath>
</defs>
</svg>
